# xmcd CD database file
#
# Track frame offsets:
#	150
#	18126
#	31477
#	48278
#	61929
#	77105
#	85805
#	98706
#	111807
#	125233
#	148408
#	162985
#	180403
#	197418
#	215392
#	238567
#	255539
#	276794
#
# Disc length: 3971 seconds
#
# Revision: 0
# Processed by: cddbd v1.5PL3 Copyright (c) Steve Scherf et al.
# Submitted via: CDex 1.50beta8
#
DISCID=f30f8112
DTITLE=ZIZZ - DEUS MACHINA DEMONBANE Original Sound Track DISC2
DYEAR=2003
DGENRE=Game
TTITLE0=HOLY WORLD
TTITLE1=魔人狂舞 -血風,灼ける大気を呼吸する時間
TTITLE2=宇宙・生命・神・悪魔
TTITLE3=汚怪なる血脈
TTITLE4=絶望に灼ける剣
TTITLE5=無限螺旋　-忌まわしき神々の呪われた宇宙
TTITLE6=征こう、恐怖と絶望と勇気と誇りに満ちた戦場に
TTITLE7=宇宙狂騒曲最終楽章 -荷烈なる憎悪と愛
TTITLE8=世界最後の詩　-我等は神話を紡ぐ者なり
TTITLE9=Shine
TTITLE10=それでは御伽噺を始めよう
TTITLE11=神の摂理に挑む者達　-魔を断つ剣は未だ折れず
TTITLE12=天意悠久
TTITLE13=HOLY WORLD　(カラオケ)
TTITLE14=Shine (カラオケ)
TTITLE15=天意悠久(カラオケ)
TTITLE16=機神咆吼ッ！ デモンベイン！ (機神咆吼ボーカルバージョン)
TTITLE17=機神咆吼ッ！ デモンベイン！ (カラオケ)
EXTD=YEAR: 2003.5.30
EXTT0=
EXTT1=
EXTT2=
EXTT3=
EXTT4=
EXTT5=
EXTT6=
EXTT7=
EXTT8=
EXTT9=
EXTT10=
EXTT11=
EXTT12=
EXTT13=
EXTT14=
EXTT15=
EXTT16=
EXTT17=
PLAYORDER=
